<svg version="1.0" xmlns="http://www.w3.org/2000/svg"
    width="96.000000pt" height="96.000000pt" viewBox="0 0 96.000000 96.000000"
    preserveAspectRatio="xMidYMid meet">

    <g transform="translate(0.000000,96.000000) scale(0.100000,-0.100000)">
        <path
            d="M406 666 c-74 -44 -96 -128 -52 -200 l23 -38 -36 -33 c-30 -28 -38
-31 -51 -20 -8 7 -29 20 -47 29 l-32 16 30 29 c39 40 39 82 0 122 -40 39 -82
39 -122 0 -39 -40 -39 -82 0 -122 l30 -29 -40 -20 c-25 -13 -46 -34 -59 -60
-35 -70 -35 -70 100 -70 100 0 120 -2 120 -15 0 -10 10 -15 30 -15 20 0 30 5
30 15 0 36 41 95 80 115 50 25 90 25 140 0 39 -20 80 -79 80 -115 0 -10 10
-15 30 -15 20 0 30 5 30 15 0 13 20 15 120 15 135 0 135 0 100 70 -13 26 -34
47 -59 60 l-40 20 30 29 c39 40 39 82 0 122 -40 39 -82 39 -122 0 -39 -40 -39
-82 0 -122 l30 -29 -32 -16 c-18 -9 -39 -22 -47 -29 -13 -11 -21 -8 -51 20
l-36 33 23 38 c30 49 30 95 2 146 -42 74 -130 98 -202 54z m135 -65 c20 -20
29 -39 29 -61 0 -43 -47 -90 -90 -90 -43 0 -90 47 -90 90 0 22 9 41 29 61 20
20 39 29 61 29 22 0 41 -9 61 -29z" />
    </g>
</svg>